<?xml version="1.0" encoding="UTF-8"?>
<svg version="1.1" viewBox="280 380 1470 1230" xmlns="http://www.w3.org/2000/svg">
<path transform="translate(895,406)" d="m0 0 14 1 21 5 16 7 11 7 11 9 7 7 10 13 8 17 5 19 2 18v679l-3 17-5 15-7 14-11 14-11 11-10 7-15 8-21 7-13 2h-19l-17-3-24-7-21-10-11-8-10-9-12-12-10-14-8-17-6-15-1-1-19-2-28-7-18-7-16-9-17-13-8-7v-2l-3-1-9-11-11-15-8-15-1-8 7-4 3 1 12 22 10 13 11 12 13 11 14 9 16 8 24 8 23 2 17 1 5 21 8 16 9 14 11 13 14 11 14 8 18 7v-86l-19-13-13-10-7-7-6-10-2-6v-128h-97l-38-1-20-4-15-5-16-8-16-10-11-9-10-10-13-18-9-17-6-15-4-15-2-14 2-1h9l3 8 7 24 9 20 8 11 11 13 12 11 13 9 14 7 19 7 12 2 316 1v-283l-305 1-18 3-16 6-17 9-12 9-10 9-10 10-10 14-8 14-10 24-2 6h-9l-4-2 6-18 7-16 6-11 10-15 9-10 7-8 11-9 15-10 19-10 19-6 9-2 9-1h127v-25l-217 1-8 16-7 8-12 6-5 1h-13l-10-3-8-6-7-8-5-10-1-4v-12l4-11 6-8 8-7 11-4h18l10 4 8 6 6 9 3 7v3h219v-39h-37l-1 5-7 9-7 4-5 1-13-1-7-4-6-7-3-9v-7l3-9 7-8 5-3 4-1h12l8 3 8 9 3 5h36v-43l2-1h45v-131l-16 9-14 11-13 13-12 17-13 24-5 4h-17l-19 2-15 4-19 8-16 10-11 9-9 8-7 8-10 13-11 19-8 19-8 22-2 1-10-2-1-2 6-18 5-14 8-16 8-14 9-12 11-13 13-12 14-10 16-9 17-7 19-5 18-3h15l2-6 11-20 8-10 9-10 10-10 15-11 14-8 19-7 18-4zm-2 13-16 2-8 3-1 29v239l1 1h37l1-2v-62l-8-6h-2l-5-10v-13l4-8 8-6 2-1v-162l-1-4zm24 3v159l3 3 8 4 3 1 7 14v7l-5 10-8 7-7 2v64h69v-197l-5-17-5-12-9-14-11-12-11-8-12-6-13-5zm-96 150v121h35l1-1v-120zm92 22-7 3-4 6v6l4 6 4 2h8l7-6v-10l-4-5zm-169 5-5 4-2 4v10l5 6 3 1h8l7-6 2-4-1-8-4-5-4-2zm-191 38-10 3-9 7-4 9v15l5 8 7 6 8 3h9l10-4 5-4 4-6 2-7v-8l-3-8-7-8-10-5zm365 365-2 2v69l1 3 8 5 5 8 2 11-2 8-6 8-7 4-1 20v120l1 8 6-1 16-7 12-8 11-9 11-14 8-16 6-17v-193l-9-1zm-91 0-6 1-1 123 2 8 10 10 22 18h2v-159l-14-1zm41 1v263l1 2 5 1 18 1h11l1-1v-148l-11-7-6-9-1-3v-8l5-10 7-6 6-3v-72zm38 84-6 4-2 4v7l3 5 5 2 9-1 5-6v-8l-5-6-2-1z" fill="#FFFFFF"/>
<path transform="translate(1143,406)" d="m0 0h11l20 4 18 6 16 8 13 9 15 14 11 13 8 13 7 14 5 12 3 8 21 2 12 3 16 6 14 8 14 11 12 12 9 13 11 21 6 18 6 21 5 12 8 12 8 9 11 8 16 8 12 4 20 2 17 1 5 2 2 2v8l-5 4-22-1-20-3-19-7-17-9-14-11-8-9-9-16-8-21-9-27-8-16-7-11-8-10-7-7-11-8-16-8-18-5-24-2-5-2-6-12-7-16-11-21-9-12-13-13-14-10-16-8-18-5-10-2h-16l-20 4-13 5-12 7-11 9-9 10-8 14-5 13-3 14-1 36v190l3-4 8-16 12-23 8-13 10-17 10-15 14-19 9-10 8-10 3-3-1-7-1-3v-16l6-11 8-6 6-2h15l8 3 8 9 3 8v14l-3 8-7 8-9 4-4 1h-15l-2 4-12 13-14 19-12 17-14 22-8 14-11 23-10 25-6 20-6 27-3 26v81l3 12 9 17 9 11 23 23 10 14 8 17 6 21 3 16 4 47 4 17 4 11 8 11 5 5 12-4h10l10 4 7 8 3 10v9l-3 9-4 5-7 5-8 2h-8l-9-3-8-7-4-10v-10l-14-14-7-11-7-19-5-33-4-39-3-18-8-17-10-14-11-12-13-13-5-4-1 19v197l1 37 3 12 8 17 8 11 11 12 10 7 10 5 18 5 7 1h17l23-5 19-8 11-6 15-10 13-10 13-13h2l2-4 7-7 11-14 12-18 11-20 6-14 5-3 7 3 2 4-4 13-12 23-11 17-10 13-11 13-16 16-14 11-15 10-20 11-16 6-18 5-13 2h-19l-20-4-13-5-15-9-12-11-8-9-9-15-6-13-4-13-1-7-1-132v-466l1-99 2-14 6-16 7-12 10-13 10-10 10-7 15-8 15-5 18-4z" fill="#FFFFFF"/>
<path transform="translate(408,1382)" d="m0 0h49l4 9 8 17 8 16 16 34 11 24 8 16 2 3 8-16 12-25 8-16 20-41 10-20 2-1h46l1 1v205l-1 1h-39l-1-1v-129l-5 5-8 16-16 33-24 48-5 4h-17l-4-2-4-10-10-19-10-22-10-19-12-24-5-9v-2h-2l1 130-4 1h-22l-16-1v-205z" fill="#FFFFFF"/>
<path transform="translate(857,1382)" d="m0 0h42l5 5 26 36 10 13 8 11 13 18 8 11 13 18 10 13 5 6v-131h44l1 1v205l-2 1h-31l-11-1-10-14-13-18-14-19-26-36-10-14-13-18-8-11-3-3-1 133-1 1h-39l-3-1-1-10v-195z" fill="#FFFFFF"/>
<path transform="translate(1259,684)" d="m0 0h15l17 3 19 8 15 9 13 10 10 9 7 7 8 7 11 10 11 8 14 8 23 9 13 3 8 1h25l17-3 3-1 6-14 6-7 9-4 5-1h10l13 4 8 8 4 10 1 12-3 11-9 10-8 4-4 1h-13l-11-4-7-6-2-3h-8l-17 2h-26l-16-3-20-6-19-8 9 24 11 29 8 16 6 10 8 9 10 6 18 5 14 8 9 7 20 20 6-1 8-1 12 3 9 6 6 9 2 5 1 13-3 9-4 6-7 7-8 3-5 1h-9l-10-3-8-6-5-7-2-7v-13l1-5v-8l-9-10-11-10-16-9-11-3h-26l-11 4-11 7-11 11-8 11-9 16-8 16-8 17-6 12 25 3 18 4 13 5 16 9 10 8 7 6 9 12 7 14 4 11 2 10v25l-4 17-5 12-8 15-8 7h-7l-5-4-1-7 11-18 5-12 2-16v-12l-2-15-6-14-7-10-5-5-8-7-14-8-14-6-16-4-14-1h-18l-7 4-8 7-11 7-10 4-6 1h-15l-17-3h-8l-8 4-5 6-4 15-5 4h-6l-5-3-2-4v-7l4-13 6-9 9-8 10-4 5-1h11l16 2 13 1 13-4 10-9 9-10 10-16 24-46 9-13 9-10 1-2h2v-2l14-11 12-7 9-3h3l-8-14-9-17-11-29-13-29-8-15-9-14-8-10-7-8-8-7-13-11-14-8-10-4-15-3h-19l-10 3-9 6-9 2-5-3-2-4 1-7 7-7 11-6 7-3z" fill="#FFFFFF"/>
<path transform="translate(794,741)" d="m0 0h49l6 13 8 22 10 26 8 21 10 27 10 26 8 21 11 29 5 14 3 4v2l-2 1h-43l-4-2-6-16-7-21-83-1-3 10-7 20-4 9-1 1h-38l-8-1 1-6 6-15 10-27 7-17 10-29 6-14 5-13 7-19 16-41 7-19zm23 49-5 12-6 18-6 17-5 14-5 13v3h56l-1-8-7-20-10-28-8-20z" fill="#FFFFFF"/>
<path transform="translate(1146,753)" d="m0 0h44l1 77h64v-77h45v194l-1 1h-43l-1-77-9-1h-54l-1 67v11h-45l-1-3v-191z" fill="#FFFFFF"/>
<path transform="translate(1604,1382)" d="m0 0h34l6 1 1 42v38l10-1h67l1-79 1-1h39l1 1v204l-1 1h-38l-1-1-1-86-78-1-1 86-4 2h-36l-2-2-1-14v-124l1-65z" fill="#FFFFFF"/>
<path transform="translate(1445,1382)" d="m0 0h51l2 2 5 17 13 37 14 37 9 24 20 53 12 33v2l-4 1h-39l-5-11-6-15-4-12-3-6h-80l-7 22-7 21-2 1h-40l-1-2 12-36 15-43 17-48 17-49 6-19 4-8zm24 45-2 2-4 14-12 34-6 20-1 5h53l-2-9-5-16-11-32-6-16z" fill="#FFFFFF"/>
<path transform="translate(673,1382)" d="m0 0h132v38l-1 1h-88v47h82l1 1v34l-3 1h-80v48h92l1 1v35l-1 1h-134l-1-1z" fill="#FFFFFF"/>
<path transform="translate(1154,1379)" d="m0 0h28l16 3 16 7 14 9 9 8-1 5-13 15-7 8-4-2-14-9-11-4-9-2h-21l-9 2-8 5-4 9v10l5 8 7 6 11 4 17 5 17 4 19 8 12 8 5 4 8 10 6 12 1 4 1 15-2 16-7 14-8 10-10 8-17 8-21 6-16 2h-11l-17-3-18-6-15-8-11-9-8-9 1-5 12-13 10-10 4 2 11 10 14 7 8 3 6 1h27l9-3 9-7 4-7 1-8-4-10-8-7-12-5-21-6-20-5-14-6-11-8-5-5-6-7-6-11-2-9v-19l3-12 7-12 9-10 12-9 17-7z" fill="#FFFFFF"/>
<path transform="translate(307,1382)" d="m0 0h46l1 1v205l-1 1h-46l-1-1v-205z" fill="#FFFFFF"/>
<path transform="translate(1292,1382)" d="m0 0h43l1 1v205h-44l-1-1v-204z" fill="#FFFFFF"/>
<path transform="translate(684,797)" d="m0 0 12 3 9 8 4 8v15l-4 8-7 6-6 2-1 59-1 1h-13v-58h-156l-3 10-6 9-7 6-9 4-5 1h-15l-11-4-8-6-7-11-4-11v-9l4-12 7-9 8-7 12-5h15l12 5 10 9 7 14v3l140-1-1-7v-9l3-9 8-8 8-4zm-3 14-5 3-3 5v9l5 7 3 1h8l6-4 3-5v-7l-4-6-4-3zm-205 7-8 4-6 7-3 8v13l4 8 8 7 8 3h10l8-3 9-8 3-8v-12l-3-8-4-5-8-5-3-1z" fill="#FFFFFF"/>
<path transform="translate(550,989)" d="m0 0h19l10 4 10 9 6 10 2 7h25l12 3 6 4 7 8 9 15 7 7 16 8 14 3h23l18-1 7-10 8-6 6-2h7l10 3 6 5 6 12 1 6-3 10-8 9-7 4-4 1h-8l-8-3-7-6-6-10-21 1h-21l-22-5-12-6-9-8-13-19-7-7-8-3h-25l-1 7-6 10-8 8-10 4-6 1h-11l-12-3-8-6-6-7-5-10v-21l4-9 6-8 9-6zm5 12-11 4-8 9-2 5v13l5 9 8 7 7 3h11l10-5 6-7 3-8v-10l-3-9-5-6-8-4-5-1zm200 59-6 5-2 4v9l5 6 2 1h10l6-5 2-5-1-7-6-7-3-1z" fill="#FFFFFF"/>
</svg>
